<svg xmlns="http://www.w3.org/2000/svg" version="1.1" viewBox="0 0 670.322998046875 729" width="671.00" height="729.00">
<path fill="#030303" fill-opacity="0.992" d="&#10;  M 329.75 0.00&#10;  Q 334.46 0.78 339.20 1.00&#10;  Q 346.43 1.34 348.71 1.59&#10;  Q 358.70 2.70 360.47 2.91&#10;  Q 411.57 8.85 457.87 30.29&#10;  Q 504.83 52.03 541.88 86.66&#10;  Q 581.87 124.06 607.33 173.91&#10;  Q 625.24 209.00 633.94 247.99&#10;  Q 634.86 252.13 637.72 268.03&#10;  C 638.04 269.81 637.75 271.62 638.29 272.99&#10;  C 639.30 275.54 638.69 278.68 639.41 281.23&#10;  Q 640.02 283.36 639.93 285.79&#10;  Q 639.76 290.62 640.66 295.02&#10;  A 10.40 10.20 40.1 0 1 640.88 297.32&#10;  Q 640.74 304.88 641.08 310.17&#10;  C 641.66 319.23 640.72 328.27 640.85 336.85&#10;  A 7.36 7.26 -39.2 0 1 640.66 338.59&#10;  C 639.63 342.99 640.47 347.60 639.34 352.09&#10;  Q 638.83 354.13 638.86 357.28&#10;  C 638.88 358.88 637.98 360.22 637.97 362.05&#10;  Q 637.97 362.36 637.59 364.86&#10;  Q 629.55 417.55 603.90 464.46&#10;  Q 588.43 492.76 568.18 515.95&#10;  Q 553.52 532.73 538.93 545.95&#10;  Q 521.45 561.77 499.69 575.67&#10;  A 2.49 2.26 -68.4 0 1 499.12 575.95&#10;  Q 494.43 577.47 496.48 581.50&#10;  Q 499.71 587.88 501.94 592.03&#10;  Q 512.58 611.90 526.59 628.90&#10;  C 549.18 656.29 580.13 676.97 616.21 680.20&#10;  C 619.05 680.46 621.57 681.12 624.75 681.10&#10;  Q 634.68 681.05 635.20 681.04&#10;  C 638.33 680.93 640.53 680.12 643.37 680.10&#10;  Q 645.98 680.08 649.44 679.30&#10;  Q 656.57 677.70 661.98 675.45&#10;  Q 666.31 673.65 669.84 670.79&#10;  A 0.30 0.30 0.0 0 1 670.32 671.07&#10;  Q 669.71 674.98 667.20 678.97&#10;  Q 663.06 685.56 656.35 691.86&#10;  Q 637.29 709.74 613.23 719.46&#10;  C 611.74 720.07 609.89 720.50 608.27 721.43&#10;  A 3.46 3.32 23.4 0 1 607.17 721.84&#10;  Q 605.04 722.22 601.69 723.66&#10;  A 3.41 3.28 31.5 0 1 600.47 723.93&#10;  Q 597.82 724.02 594.58 725.49&#10;  A 2.15 1.95 24.5 0 1 594.05 725.66&#10;  L 582.26 727.82&#10;  A 1.72 0.99 -10.7 0 1 582.02 727.85&#10;  L 567.86 729.00&#10;  L 555.62 729.00&#10;  Q 550.04 727.97 544.41 727.93&#10;  A 17.30 17.03 -38.3 0 1 541.11 727.57&#10;  Q 538.67 727.06 535.11 726.51&#10;  Q 529.82 725.70 527.42 725.18&#10;  Q 508.43 721.04 491.72 713.01&#10;  C 459.09 697.33 432.41 671.29 412.19 641.33&#10;  Q 406.61 633.06 401.23 624.49&#10;  Q 399.58 621.85 397.31 623.46&#10;  A 2.28 2.20 -61.9 0 1 396.01 623.88&#10;  Q 392.44 623.91 388.51 625.46&#10;  A 5.97 5.83 31.7 0 1 386.72 625.86&#10;  Q 383.01 626.12 378.49 627.57&#10;  A 6.80 6.56 -54.5 0 1 376.88 627.87&#10;  Q 370.84 628.25 365.95 629.67&#10;  A 5.50 5.25 34.5 0 1 364.53 629.90&#10;  L 360.20 630.03&#10;  A 0.98 0.81 -50.3 0 0 359.88 630.09&#10;  Q 357.23 631.06 353.73 630.89&#10;  C 352.31 630.82 350.87 631.47 349.88 631.68&#10;  Q 348.32 632.01 346.93 631.97&#10;  Q 340.44 631.80 336.79 632.28&#10;  C 328.91 633.31 324.35 632.94 313.63 632.95&#10;  Q 308.94 632.95 304.77 632.37&#10;  C 300.07 631.72 295.62 632.46 291.05 631.37&#10;  C 288.54 630.77 285.72 631.33 283.42 630.35&#10;  C 281.81 629.66 278.64 629.96 276.42 629.62&#10;  Q 232.11 622.84 193.25 605.92&#10;  Q 145.93 585.31 107.47 551.89&#10;  Q 68.01 517.60 42.51 474.17&#10;  Q 11.75 421.77 3.18 359.28&#10;  C 2.96 357.72 3.22 355.71 2.58 354.17&#10;  Q 2.04 352.89 2.10 350.32&#10;  Q 2.19 346.86 1.32 343.73&#10;  A 3.00 2.37 -61.6 0 1 1.21 343.10&#10;  L 0.00 324.06&#10;  L 0.00 307.12&#10;  L 1.21 289.26&#10;  A 2.94 2.46 -39.9 0 1 1.31 288.70&#10;  C 2.44 285.01 1.46 281.65 2.56 278.12&#10;  C 3.36 275.57 2.58 272.65 3.77 270.31&#10;  C 4.39 269.08 3.84 266.72 4.41 265.03&#10;  C 5.11 262.98 4.75 260.14 5.65 258.65&#10;  C 6.25 257.65 5.96 255.87 6.29 254.47&#10;  Q 6.39 254.05 8.12 246.53&#10;  Q 18.76 200.12 42.07 159.03&#10;  Q 59.13 128.95 81.75 104.01&#10;  Q 87.22 97.98 96.49 88.92&#10;  Q 104.68 80.91 112.14 74.76&#10;  Q 176.20 21.90 258.69 5.89&#10;  Q 273.85 2.95 289.24 1.72&#10;  A 4.42 3.99 -54.3 0 0 290.44 1.46&#10;  Q 291.38 1.12 291.75 1.12&#10;  Q 299.96 1.13 308.13 0.00&#10;  L 329.75 0.00&#10;  Z&#10;  M 464.54 509.91&#10;  Q 465.55 509.49 466.27 508.03&#10;  A 3.76 3.52 -12.9 0 1 466.83 507.20&#10;  Q 471.11 502.36 472.07 501.05&#10;  Q 494.69 470.45 506.54 434.06&#10;  Q 509.18 425.97 510.71 418.00&#10;  Q 512.79 407.19 512.81 407.07&#10;  C 513.10 405.56 512.92 403.94 513.51 402.78&#10;  C 514.45 400.94 513.87 397.99 514.49 395.84&#10;  Q 515.22 393.31 515.08 392.09&#10;  C 514.76 389.32 516.17 387.35 516.05 384.64&#10;  Q 515.89 381.23 516.50 378.51&#10;  C 517.52 373.95 516.70 369.88 517.45 365.29&#10;  Q 518.07 361.47 518.07 358.17&#10;  Q 518.08 346.58 518.02 334.61&#10;  A 13.42 13.22 -51.4 0 0 517.75 332.04&#10;  C 517.38 330.18 516.96 328.27 517.05 325.88&#10;  Q 517.27 320.28 516.45 316.28&#10;  C 515.82 313.24 516.48 309.43 515.75 307.06&#10;  Q 514.99 304.61 515.00 301.68&#10;  Q 515.02 298.92 514.33 296.28&#10;  Q 514.08 295.33 513.92 294.02&#10;  Q 510.93 269.82 502.46 242.28&#10;  Q 485.20 186.16 448.93 141.82&#10;  C 435.17 125.01 419.13 109.90 401.26 97.76&#10;  Q 364.25 72.63 320.53 66.08&#10;  Q 317.21 65.58 313.71 65.25&#10;  C 307.33 64.66 302.90 63.93 296.59 63.96&#10;  Q 290.43 63.99 282.32 64.01&#10;  A 9.74 9.56 37.8 0 0 280.27 64.25&#10;  Q 277.92 64.79 274.79 64.91&#10;  Q 272.31 65.01 268.28 65.50&#10;  Q 231.81 69.90 199.88 88.16&#10;  Q 177.14 101.16 159.74 119.58&#10;  Q 141.62 138.77 130.08 161.08&#10;  Q 111.00 197.94 107.09 241.77&#10;  C 106.61 247.19 105.97 251.34 105.95 256.25&#10;  Q 105.88 278.63 106.04 281.73&#10;  A 15.34 14.30 -54.3 0 0 106.31 283.84&#10;  Q 107.02 287.41 107.00 288.01&#10;  Q 106.75 293.39 107.39 296.17&#10;  C 108.21 299.66 107.59 303.33 108.72 306.50&#10;  A 2.86 2.78 -52.3 0 1 108.86 307.74&#10;  Q 108.82 308.07 109.53 312.95&#10;  Q 114.60 347.81 127.67 381.69&#10;  Q 140.34 414.51 161.06 444.39&#10;  Q 187.85 483.03 223.73 512.02&#10;  Q 239.39 524.68 257.39 535.09&#10;  Q 278.17 547.11 301.18 554.09&#10;  Q 321.88 560.36 343.75 560.20&#10;  C 348.16 560.17 354.53 560.37 359.26 559.55&#10;  Q 363.00 558.90 366.65 557.89&#10;  A 0.57 0.56 -20.3 0 0 367.02 557.10&#10;  Q 349.72 519.88 327.87 486.14&#10;  Q 315.05 466.33 296.43 446.23&#10;  C 291.87 441.31 286.63 436.85 282.24 433.04&#10;  C 266.38 419.24 246.85 409.59 225.53 408.47&#10;  C 222.59 408.31 219.55 409.12 217.40 408.95&#10;  A 4.11 4.09 -53.4 0 0 215.60 409.22&#10;  Q 213.91 409.88 211.65 410.01&#10;  A 3.73 3.50 31.2 0 0 210.52 410.25&#10;  Q 208.07 411.22 207.88 411.40&#10;  A 1.68 1.65 -69.5 0 1 207.00 411.81&#10;  Q 204.94 412.12 203.77 413.54&#10;  A 0.98 0.97 77.5 0 1 202.14 412.50&#10;  Q 203.72 409.15 204.18 407.23&#10;  A 3.85 3.69 -23.3 0 1 204.62 406.19&#10;  Q 209.21 398.74 210.03 397.78&#10;  Q 221.73 384.14 238.33 376.60&#10;  Q 249.84 371.37 265.76 368.27&#10;  C 267.80 367.88 269.82 368.16 271.79 367.74&#10;  Q 273.67 367.34 276.28 367.20&#10;  C 310.71 365.28 344.13 375.69 372.22 395.28&#10;  Q 384.00 403.49 391.08 409.97&#10;  Q 414.95 431.80 433.98 459.81&#10;  Q 440.93 470.03 452.74 490.06&#10;  Q 453.28 490.97 453.41 491.12&#10;  A 1.86 1.83 -72.1 0 1 453.84 491.98&#10;  Q 454.18 493.59 455.57 495.05&#10;  C 455.77 495.25 455.91 495.64 455.91 495.91&#10;  Q 455.92 496.25 456.10 496.57&#10;  Q 459.34 502.06 462.96 509.32&#10;  A 1.24 1.23 -24.3 0 0 464.54 509.91&#10;  Z"/>
</svg>